#!OML:ASF F:\VICON\USERDATA\INSTALL\rory3\rory3.ASF
:FULLY-SPECIFIED
:DEGREES
360
root -9.03634 17.6482 10.7729 1.45282 -52.7911 -1.59258
lowerback 6.81135 3.51205 0.372721
upperback 0.879613 4.68866 -0.0567988
thorax -2.86583 2.32363 -0.694323
lowerneck -20.3761 -4.99783 -9.14453
upperneck 26.5158 -6.79596 8.4748
head 12.8677 -2.88581 3.6399
rclavicle -5.57715e-014 -5.66536e-015
rhumerus -30.4464 0.117415 -82.4392
rradius 34.6041
rwrist 7.19951
rhand -15.0402 12.7493
rfingers 7.12502
rthumb 11.1259 -16.9358
lclavicle -5.57715e-014 -5.66536e-015
lhumerus -39.8484 1.43951 81.3072
lradius 32.6351
lwrist -6.96947
lhand -13.741 24.0242
lfingers 7.12502
lthumb 12.3788 53.6377
rfemur 13.0268 3.43828 24.1989
rtibia 32.2759
rfoot -0.974261 1.87163
rtoes -0.83263
lfemur -22.5336 -0.626327 -19.3805
ltibia 17.8983
lfoot -3.27006 -0.540065
ltoes -10.0998
361
root -9.16436 17.6635 10.9142 0.998092 -52.3994 -1.26616
lowerback 6.91556 3.36586 0.329982
upperback 0.897422 4.48768 -0.15372
thorax -2.90333 2.22323 -0.758025
lowerneck -20.1483 -5.02075 -9.18166
upperneck 26.3789 -6.83799 8.51141
head 12.7732 -2.90947 3.65144
rclavicle -5.61132e-014 5.1684e-015
rhumerus -30.9761 -0.372746 -82.4588
rradius 34.517
rwrist 7.16995
rhand -15.1838 12.6971
rfingers 7.12502
rthumb 10.9875 -16.9954
lclavicle -5.61132e-014 5.1684e-015
lhumerus -39.7923 1.55232 81.1084
lradius 31.914
lwrist -6.9395
lhand -13.6015 24.2766
lfingers 7.12502
lthumb 12.5134 53.882
rfemur 12.3318 2.92117 23.7794
rtibia 34.4585
rfoot 1.17096 2.27583
rtoes -0.744476
lfemur -21.8903 0.00835168 -19.8893
ltibia 18.0622
lfoot -2.78304 -1.5138
ltoes -8.1812
362
root -9.28892 17.6771 11.0559 0.789649 -52.1146 -1.16612
lowerback 6.93221 3.21502 0.42819
upperback 0.924066 4.29275 -0.19543
thorax -2.87711 2.1252 -0.837425
lowerneck -20.1465 -4.97379 -9.17582
upperneck 26.4061 -6.76467 8.47941
head 12.7739 -2.88103 3.65167
rclavicle -3.3812e-014 8.84592e-015
rhumerus -31.4347 -0.874076 -82.4439
rradius 34.3968
rwrist 7.15285
rhand -15.2369 12.7476
rfingers 7.12502
rthumb 10.9362 -16.9476
lclavicle -3.3812e-014 8.84592e-015
lhumerus -39.6994 1.83968 80.855
lradius 31.2585
lwrist -6.95218
lhand -13.5131 24.4153
lfingers 7.12502
lthumb 12.5985 54.0154
rfemur 11.4896 2.66407 23.5175
rtibia 36.7849
rfoot 3.31671 2.38507
rtoes 1.71103
lfemur -21.3489 0.620769 -20.1782
ltibia 18.3307
lfoot -2.31038 -2.39003
ltoes -6.55302
363
root -9.41019 17.6903 11.197 0.721954 -51.9949 -1.19194
lowerback 6.88665 3.12901 0.63029
upperback 1.01078 4.19123 -0.2267
thorax -2.74682 2.07357 -0.966181
lowerneck -20.3071 -4.96677 -9.15113
upperneck 26.4217 -6.72762 8.41524
head 12.8053 -2.86577 3.62783
rclavicle 4.7876e-014 -6.75868e-015
rhumerus -31.7599 -1.48273 -82.3496
rradius 34.2677
rwrist 7.18
rhand -15.0423 12.7937
rfingers 7.12502
rthumb 11.124 -16.8915
lclavicle 4.7876e-014 -6.75868e-015
lhumerus -39.4873 2.24725 80.6028
lradius 30.6927
lwrist -7.14365
lhand -13.4413 24.6159
lfingers 7.12502
lthumb 12.6678 54.2117
rfemur 10.4847 2.56529 23.3109
rtibia 39.2753
rfoot 5.17837 2.41215
rtoes 4.57977
lfemur -20.8631 1.2389 -20.3291
ltibia 18.7068
lfoot -2.00911 -3.31466
ltoes -10.1359
364
root -9.53069 17.6983 11.3401 0.69609 -51.9991 -1.2615
lowerback 6.80612 3.10112 0.876066
upperback 1.08316 4.16958 -0.269779
thorax -2.60687 2.06179 -1.137
lowerneck -20.4118 -5.00205 -9.13315
upperneck 26.4474 -6.76477 8.37638
head 12.8391 -2.88245 3.60247
rclavicle -4.4124e-014 4.37326e-015
rhumerus -32.1726 -2.16046 -82.2071
rradius 34.2014
rwrist 7.16761
rhand -14.8264 12.6854
rfingers 7.12502
rthumb 11.3321 -16.9885
lclavicle -4.4124e-014 4.37326e-015
lhumerus -39.283 2.42456 80.4108
lradius 30.1166
lwrist -7.27536
lhand -13.1891 24.6762
lfingers 7.12502
lthumb 12.9109 54.2568
rfemur 9.34143 2.53915 23.1857
rtibia 41.8501
rfoot 7.00023 2.51301
rtoes 4.33691
lfemur -20.3481 1.75509 -20.4193
ltibia 19.0575
lfoot -1.79229 -4.10558
ltoes -10.8289
365
root -9.65135 17.6971 11.4805 0.591066 -52.069 -1.24472
lowerback 6.74928 3.07109 1.02683
upperback 1.12977 4.13796 -0.323809
thorax -2.51316 2.0457 -1.26805
lowerneck -20.5218 -5.01326 -9.16482
upperneck 26.5805 -6.79729 8.4531
head 12.9241 -2.88814 3.63485
rclavicle 1.10922e-013 -8.54774e-015
rhumerus -32.6608 -2.55839 -82.1786
rradius 34.2447
rwrist 6.87983
rhand -14.6602 12.5382
rfingers 7.12502
rthumb 11.4924 -17.1268
lclavicle 1.10922e-013 -8.54774e-015
lhumerus -39.1792 2.5005 80.1983
lradius 29.7
lwrist -7.46632
lhand -12.7093 24.9043
lfingers 7.12502
lthumb 13.3734 54.4551
rfemur 8.18168 2.80873 23.117
rtibia 44.4352
rfoot 8.90449 2.06452
rtoes 6.25308
lfemur -19.7335 2.19522 -20.5641
ltibia 19.2377
lfoot -1.60887 -4.73559
ltoes -9.08461
366
root -9.77301 17.7067 11.6153 0.0560591 -52.1759 -0.703667
lowerback 6.80602 3.07702 0.71044
upperback 1.15764 4.12127 -0.375296
thorax -2.53501 2.03944 -1.14627
lowerneck -20.5453 -4.99773 -9.2703
upperneck 26.5756 -6.72489 8.42461
head 12.922 -2.87 3.6544
rclavicle 4.38134e-014 -6.65929e-015
rhumerus -33.1878 -2.52436 -82.1554
rradius 34.3277
rwrist 6.33563
rhand -14.6643 12.6581
rfingers 7.12502
rthumb 11.4886 -17.007
lclavicle 4.38134e-014 -6.65929e-015
lhumerus -39.1713 2.51874 80.1402
lradius 29.44
lwrist -7.71228
lhand -12.216 24.9826
lfingers 7.12502
lthumb 13.8489 54.5016
rfemur 7.0368 2.97171 22.6107
rtibia 46.9168
rfoot 10.9563 1.79102
rtoes 9.11038
lfemur -18.9619 2.77062 -21.0852
ltibia 19.2028
lfoot -1.62061 -5.34291
ltoes -7.55786
367
root -9.89251 17.7295 11.7465 -0.680012 -52.1674 0.127946
lowerback 6.63911 2.96836 0.510804
upperback 1.3696 3.95074 -0.696585
thorax -2.21815 1.95784 -1.3325
lowerneck -20.7247 -4.82773 -8.97709
upperneck 26.3849 -6.5132 8.32546
head 12.8415 -2.75331 3.59695
rclavicle 2.55811e-014 -6.16232e-015
rhumerus -33.2268 -2.46944 -82.5757
rradius 34.1992
rwrist 5.86215
rhand -14.6548 12.8639
rfingers 7.12502
rthumb 11.4977 -16.8007
lclavicle 2.55811e-014 -6.16232e-015
lhumerus -38.7339 2.41827 79.8163
lradius 29.0715
lwrist -7.72256
lhand -11.932 24.9531
lfingers 7.12502
lthumb 14.1225 54.4531
rfemur 5.77666 2.81688 21.8427
rtibia 49.2485
rfoot 13.1793 2.1995
rtoes 9.59625
lfemur -18.09 3.26446 -21.8073
ltibia 18.9359
lfoot -1.6598 -5.89195
ltoes -7.50238
368
root -10.0131 17.7588 11.8758 -1.37636 -52.021 0.968837
lowerback 6.67706 2.84523 0.171471
upperback 1.35578 3.75603 -0.940922
thorax -2.26373 1.86168 -1.38121
lowerneck -20.6495 -4.69318 -8.77121
upperneck 26.2838 -6.35751 8.22565
head 12.7559 -2.67846 3.54827
rclavicle 8.57259e-016 1.98785e-015
rhumerus -33.6255 -2.25523 -82.8842
rradius 34.1211
rwrist 5.25566
rhand -14.5798 12.9635
rfingers 7.12502
rthumb 11.57 -16.6971
lclavicle 8.57259e-016 1.98785e-015
lhumerus -38.6172 1.9438 79.7616
lradius 28.7719
lwrist -7.46629
lhand -11.8887 25.1013
lfingers 7.12502
lthumb 14.1643 54.5984
rfemur 4.47812 2.60108 21.0887
rtibia 51.4124
rfoot 15.2657 2.29161
rtoes 10.8421
lfemur -17.1514 3.60877 -22.551
ltibia 18.3866
lfoot -1.59255 -6.41428
ltoes -8.18933
